<svg width="814" height="814" viewBox="0 0 814 814" fill="none" xmlns="http://www.w3.org/2000/svg">
<g clip-path="url(#clip0_20_19)">
<path d="M407.015 0C182.589 0 0 182.589 0 407.015C0 631.44 182.589 814 407.015 814C631.44 814 814 631.411 814 407.015C814 182.618 631.411 0 407.015 0ZM407.015 810.401C184.491 810.401 3.48151 629.509 3.48151 407.015C3.48151 184.52 184.491 3.48151 407.015 3.48151C629.539 3.48151 810.401 184.491 810.401 407.015C810.401 629.539 629.509 810.401 407.015 810.401Z" fill="#FF8C8C"/>
<path d="M150.232 442.415C150.517 442.376 150.808 442.404 151.081 442.496C151.355 442.588 151.603 442.742 151.807 442.946C152.01 443.15 152.165 443.398 152.257 443.672C152.349 443.945 152.377 444.236 152.338 444.521V451.952C152.319 452.144 152.344 452.337 152.409 452.518C152.475 452.699 152.581 452.863 152.718 452.998C152.856 453.133 153.022 453.235 153.204 453.297C153.387 453.359 153.581 453.38 153.772 453.357C154.15 453.33 154.505 453.163 154.766 452.889C155.027 452.623 155.174 452.266 155.176 451.894L154.649 426.031C154.623 425.653 154.456 425.298 154.181 425.037C153.926 424.778 153.579 424.631 153.216 424.627C153.025 424.628 152.835 424.667 152.659 424.743C152.484 424.818 152.325 424.928 152.192 425.066C151.932 425.344 151.786 425.709 151.782 426.09L151.987 436.066C152.04 436.356 152.024 436.654 151.94 436.936C151.856 437.218 151.707 437.476 151.505 437.69C151.303 437.904 151.053 438.067 150.776 438.166C150.498 438.265 150.202 438.297 149.91 438.26L68.8697 439.899L153.742 374.482V370.415L58.6593 372.346C58.0985 372.379 57.5454 372.202 57.1087 371.848C56.9106 371.633 56.7591 371.378 56.6635 371.102C56.5678 370.825 56.5302 370.531 56.5528 370.239L56.2895 362.779C56.2687 362.399 56.1008 362.042 55.8214 361.784C55.6994 361.651 55.55 361.545 55.3834 361.474C55.2168 361.403 55.0368 361.369 54.8559 361.375C54.6641 361.372 54.4739 361.41 54.2975 361.486C54.1211 361.561 53.9626 361.673 53.832 361.814C53.5722 362.092 53.426 362.457 53.4224 362.837L53.949 388.671C53.9697 389.051 54.1376 389.407 54.4171 389.666C54.5447 389.8 54.6993 389.906 54.8707 389.977C55.0421 390.047 55.2265 390.081 55.4118 390.075C55.6085 390.1 55.8082 390.079 55.9954 390.013C56.1826 389.948 56.3522 389.84 56.4909 389.699C56.6297 389.557 56.7338 389.386 56.7953 389.197C56.8568 389.009 56.8739 388.809 56.8454 388.612L56.6406 378.636C56.593 378.345 56.6139 378.046 56.7015 377.765C56.7892 377.483 56.9412 377.225 57.1455 377.012C57.3499 376.8 57.601 376.637 57.8789 376.538C58.1569 376.439 58.4541 376.406 58.747 376.442L135.662 374.891L54.9437 435.627L55.324 453.883C55.3221 454.071 55.3603 454.257 55.436 454.428C55.5117 454.6 55.6231 454.753 55.7629 454.878C55.8905 455.012 56.0451 455.118 56.2165 455.189C56.3879 455.26 56.5723 455.293 56.7576 455.288C56.9503 455.306 57.1446 455.281 57.3267 455.215C57.5087 455.149 57.674 455.044 57.8108 454.907C58.0663 454.607 58.1925 454.218 58.1619 453.825L58.0156 446.423C57.9615 446.131 57.9778 445.83 58.0631 445.545C58.1484 445.26 58.3002 445 58.506 444.786C58.7119 444.571 58.9658 444.409 59.2468 444.312C59.5278 444.215 59.8278 444.187 60.1221 444.229L150.173 442.386L150.232 442.415Z" fill="#FF8C8C"/>
<path d="M86.7743 313.921C93.1742 320.658 101.002 325.876 109.682 329.193C117.211 332.342 125.277 334.011 133.438 334.108C134.55 334.108 135.662 334.108 136.773 334.108C144.996 333.709 152.951 331.057 159.769 326.443C166.348 321.78 171.446 315.324 174.454 307.843C177.463 300.362 178.256 292.174 176.738 284.255C174.99 276.219 171.063 268.819 165.386 262.869C158.975 256.159 151.15 250.962 142.478 247.655C133.92 244.05 124.664 242.401 115.387 242.828C107.18 243.193 99.2333 245.815 92.4208 250.405C85.8474 255.065 80.7527 261.517 77.7441 268.992C74.7355 276.467 73.9399 284.649 75.4521 292.564C77.2215 300.577 81.135 307.959 86.7743 313.921ZM80.4257 270.036C82.691 264.257 87.0309 259.531 92.5964 256.783C98.2516 254.036 104.479 252.672 110.765 252.804H113.076C121.676 253.318 130.126 255.297 138.061 258.656C146.107 261.75 153.566 266.192 160.12 271.792C165.543 276.317 169.697 282.175 172.174 288.79C174.246 294.652 174.109 301.07 171.788 306.838C169.466 312.607 165.12 317.331 159.564 320.123C153.19 323.175 146.135 324.525 139.085 324.044C130.46 323.565 121.985 321.585 114.041 318.192C106.004 315.09 98.562 310.627 92.0405 304.998C86.6351 300.456 82.485 294.603 79.9869 288C77.8692 282.14 78.0258 275.699 80.4257 269.949V270.036Z" fill="#FF8C8C"/>
<path d="M127.265 186.158L132.502 180.921C132.68 180.707 132.904 180.534 133.157 180.415C133.41 180.296 133.685 180.235 133.965 180.235C134.244 180.235 134.52 180.296 134.773 180.415C135.026 180.534 135.249 180.707 135.428 180.921L199.323 244.583C199.538 244.762 199.711 244.985 199.83 245.238C199.949 245.491 200.01 245.767 200.01 246.046C200.01 246.325 199.949 246.601 199.83 246.854C199.711 247.107 199.538 247.33 199.323 247.509L194.087 252.746C193.934 252.872 193.809 253.028 193.718 253.204C193.628 253.38 193.574 253.572 193.56 253.77C193.6 254.165 193.788 254.531 194.087 254.794C194.217 254.924 194.372 255.027 194.543 255.097C194.714 255.168 194.897 255.204 195.081 255.203C195.271 255.208 195.459 255.174 195.635 255.103C195.811 255.033 195.971 254.927 196.105 254.794L214.391 236.479C214.517 236.347 214.616 236.191 214.681 236.02C214.746 235.849 214.777 235.667 214.771 235.484C214.779 235.297 214.75 235.11 214.684 234.934C214.619 234.758 214.519 234.597 214.391 234.46C214.116 234.196 213.748 234.049 213.367 234.051C213.177 234.047 212.989 234.081 212.813 234.151C212.637 234.221 212.477 234.327 212.343 234.46L205.292 241.511C205.113 241.726 204.89 241.899 204.637 242.018C204.384 242.136 204.108 242.198 203.829 242.198C203.55 242.198 203.274 242.136 203.021 242.018C202.768 241.899 202.545 241.726 202.366 241.511L144.877 184.315L250.698 200.084L253.623 197.334L186.334 130.045C186.119 129.866 185.946 129.642 185.827 129.39C185.709 129.137 185.647 128.861 185.647 128.582C185.647 128.302 185.709 128.027 185.827 127.774C185.946 127.521 186.119 127.297 186.334 127.119L191.571 121.882C191.704 121.748 191.81 121.588 191.88 121.412C191.95 121.236 191.985 121.047 191.98 120.858C191.982 120.476 191.835 120.109 191.571 119.834C191.436 119.7 191.276 119.595 191.1 119.525C190.924 119.454 190.736 119.42 190.547 119.424C190.165 119.422 189.797 119.569 189.523 119.834L171.267 138.149C171.133 138.283 171.027 138.443 170.957 138.619C170.887 138.795 170.853 138.983 170.857 139.172C170.857 139.357 170.893 139.54 170.963 139.711C171.033 139.881 171.136 140.036 171.267 140.167C171.384 140.325 171.536 140.452 171.711 140.54C171.886 140.628 172.08 140.674 172.276 140.674C172.472 140.674 172.666 140.628 172.841 140.54C173.016 140.452 173.168 140.325 173.285 140.167L180.365 133.116C180.541 132.897 180.763 132.72 181.017 132.598C181.27 132.476 181.547 132.413 181.828 132.413C182.109 132.413 182.387 132.476 182.64 132.598C182.893 132.72 183.116 132.897 183.291 133.116L237.854 187.241L138.207 171.237L125.217 184.14C125.083 184.274 124.978 184.434 124.908 184.61C124.837 184.786 124.803 184.974 124.808 185.164C124.807 185.348 124.843 185.531 124.913 185.702C124.984 185.872 125.087 186.027 125.217 186.158C125.337 186.316 125.492 186.444 125.67 186.532C125.847 186.62 126.043 186.665 126.241 186.665C126.439 186.665 126.635 186.62 126.812 186.532C126.99 186.444 127.145 186.316 127.265 186.158Z" fill="#FF8C8C"/>
<path d="M243.706 89.4661C244.062 89.6093 244.461 89.6093 244.817 89.4661L251.605 86.599C251.873 86.4863 252.162 86.4283 252.453 86.4283C252.745 86.4283 253.033 86.4863 253.302 86.599C253.577 86.6966 253.829 86.8512 254.041 87.0529C254.253 87.2546 254.42 87.4987 254.53 87.7692L288.468 171.238C288.618 171.49 288.707 171.774 288.727 172.066C288.748 172.359 288.699 172.653 288.585 172.923C288.471 173.194 288.295 173.434 288.072 173.624C287.848 173.814 287.583 173.948 287.298 174.017L280.422 176.943C280.233 176.993 280.058 177.087 279.91 177.215C279.762 177.344 279.646 177.505 279.569 177.686C279.493 177.866 279.459 178.062 279.47 178.258C279.481 178.453 279.537 178.644 279.632 178.815C279.703 178.99 279.81 179.148 279.946 179.279C280.082 179.411 280.245 179.511 280.422 179.576C280.605 179.617 280.795 179.617 280.978 179.576H281.505L312.575 166.761C312.75 166.691 312.908 166.584 313.04 166.447C313.171 166.311 313.271 166.149 313.336 165.971C313.407 165.8 313.444 165.616 313.444 165.43C313.444 165.244 313.407 165.06 313.336 164.889C313.185 164.533 312.901 164.25 312.546 164.099C312.375 164.026 312.191 163.988 312.005 163.988C311.818 163.988 311.634 164.026 311.463 164.099L301.019 168.341C300.75 168.454 300.462 168.512 300.17 168.512C299.879 168.512 299.591 168.454 299.322 168.341C298.805 168.065 298.409 167.606 298.21 167.054L279.047 120.098L297.04 112.754C299.302 111.698 301.77 111.158 304.266 111.174C306.52 111.471 308.594 112.56 310.118 114.246C312.555 117.002 314.531 120.134 315.969 123.521C316.187 123.801 316.455 124.038 316.759 124.223C316.905 124.293 317.065 124.329 317.227 124.329C317.389 124.329 317.549 124.293 317.695 124.223C317.844 124.161 317.978 124.065 318.084 123.943C318.191 123.822 318.268 123.677 318.309 123.521C318.425 123.169 318.425 122.79 318.309 122.438L304.91 89.232C304.776 88.8946 304.527 88.6151 304.208 88.4421C304.062 88.372 303.902 88.3357 303.74 88.3357C303.578 88.3357 303.418 88.372 303.272 88.4421C302.992 88.57 302.772 88.8004 302.657 89.0858C302.553 89.4291 302.553 89.7956 302.657 90.139C303.708 93.4412 304.251 96.8841 304.266 100.349C304.242 102.481 303.5 104.543 302.16 106.201C300.45 107.946 298.371 109.286 296.074 110.121L277.936 117.435L263.483 81.9179L290.955 70.742C294.067 69.3674 297.414 68.6026 300.814 68.4893H301.019C304.138 68.5523 307.178 69.4845 309.796 71.1809C313.382 73.5267 316.664 76.3077 319.567 79.4604C319.785 79.7336 320.087 79.9255 320.427 80.0052C320.767 80.0848 321.124 80.0475 321.44 79.8993C321.618 79.8425 321.78 79.7439 321.913 79.6115C322.045 79.4791 322.144 79.317 322.2 79.1386C322.279 78.7017 322.218 78.2512 322.025 77.8513L321.849 77.471L310.878 59.6831L243.881 86.95C243.706 87.0209 243.548 87.1279 243.417 87.264C243.286 87.4001 243.185 87.5623 243.12 87.74C243.049 87.9114 243.012 88.0954 243.012 88.2812C243.012 88.467 243.049 88.651 243.12 88.8225C243.249 89.0894 243.452 89.3131 243.706 89.4661Z" fill="#FF8C8C"/>
<path d="M395.458 145.551L388.056 146.311C387.772 146.366 387.479 146.36 387.197 146.294C386.915 146.229 386.65 146.105 386.418 145.931C386.205 145.731 386.033 145.491 385.913 145.225C385.792 144.959 385.725 144.672 385.716 144.38L376.559 54.768C376.479 54.482 376.469 54.1813 376.529 53.8906C376.589 53.6 376.717 53.3277 376.903 53.0962C377.089 52.8648 377.327 52.6808 377.597 52.5595C377.868 52.4381 378.164 52.3828 378.46 52.3982L385.862 51.6376C386.048 51.6264 386.229 51.5732 386.391 51.482C386.553 51.3908 386.692 51.2639 386.798 51.111C386.926 50.973 387.024 50.8097 387.085 50.6317C387.146 50.4536 387.169 50.2647 387.152 50.0773C387.136 49.8898 387.08 49.7079 386.989 49.5432C386.898 49.3786 386.773 49.235 386.623 49.1215C386.33 48.8734 385.953 48.7477 385.57 48.7705L356.021 51.6961C355.832 51.7109 355.648 51.7655 355.482 51.8563C355.315 51.947 355.17 52.0719 355.055 52.2227C354.823 52.5226 354.708 52.8973 354.733 53.2759C354.753 53.6646 354.92 54.031 355.202 54.2999C355.53 54.5158 355.923 54.6091 356.313 54.5632L363.686 53.8026C363.973 53.7398 364.27 53.7387 364.557 53.7992C364.845 53.8597 365.116 53.9805 365.353 54.1536C365.774 54.5641 366.024 55.1176 366.056 55.7042L375.213 145.346C375.267 145.633 375.264 145.928 375.203 146.215C375.143 146.501 375.027 146.772 374.862 147.013C374.661 147.222 374.42 147.39 374.154 147.505C373.888 147.621 373.601 147.682 373.311 147.686L365.909 148.447C365.713 148.442 365.517 148.482 365.338 148.564C365.16 148.646 365.002 148.768 364.878 148.921C364.753 149.073 364.666 149.252 364.621 149.444C364.577 149.636 364.577 149.835 364.622 150.027C364.676 150.401 364.863 150.744 365.149 150.992C365.402 151.205 365.724 151.32 366.056 151.314L395.605 148.388C395.979 148.334 396.322 148.147 396.57 147.862C396.803 147.562 396.917 147.187 396.892 146.809C396.838 146.434 396.651 146.091 396.365 145.843C396.11 145.636 395.787 145.531 395.458 145.551Z" fill="#FF8C8C"/>
<path d="M498.704 144.322C498.912 144.026 499.023 143.674 499.023 143.312C499.023 142.951 498.912 142.599 498.704 142.303C498.564 142.133 498.383 142.002 498.179 141.92C497.974 141.838 497.752 141.809 497.534 141.835C497.039 141.926 496.581 142.16 496.217 142.508C492.016 147.287 486.612 150.853 480.565 152.835C475.014 154.644 469.096 155.016 463.362 153.918C457.139 152.735 451.551 149.349 447.622 144.38C443.197 138.695 440.315 131.963 439.255 124.837C437.922 116.326 438.13 107.645 439.869 99.2084C441.393 90.7493 444.425 82.6331 448.822 75.2475C452.347 69.0548 457.379 63.8523 463.45 60.1219C468.64 56.9786 474.808 55.8637 480.77 56.9915C484.504 57.5365 488.082 58.8598 491.272 60.8758C494.463 62.8917 497.194 65.5553 499.289 68.694C503.635 76.4803 505.807 85.2916 505.579 94.2056C505.571 94.6545 505.704 95.0947 505.96 95.4636C506.179 95.8128 506.525 96.0642 506.925 96.1658C507.109 96.2002 507.299 96.1889 507.477 96.1328C507.656 96.0767 507.818 95.9775 507.949 95.8439C508.268 95.502 508.481 95.0754 508.563 94.6152L512.923 63.3986C512.947 63.2619 512.944 63.1217 512.914 62.9861C512.884 62.8506 512.827 62.7223 512.747 62.6087C512.69 62.5041 512.61 62.4132 512.514 62.3425C512.418 62.2717 512.308 62.2228 512.191 62.1991C511.782 62.1991 511.46 62.1991 511.167 62.755L507.715 69.4254C504.264 65.5278 500.227 62.1915 495.749 59.5368C490.875 56.7607 485.561 54.841 480.038 53.8611C472.366 52.3039 464.4 53.1413 457.218 56.2601C449.806 59.6061 443.452 64.9181 438.845 71.6197C433.527 79.1949 429.932 87.8428 428.313 96.9557C426.396 106.05 426.546 115.458 428.752 124.486C430.698 132.477 434.796 139.782 440.601 145.609C446.367 151.274 453.709 155.067 461.665 156.492C464.507 157.059 467.398 157.344 470.296 157.341C474.261 157.375 478.207 156.802 481.999 155.644C488.479 153.431 494.248 149.522 498.704 144.322Z" fill="#FF8C8C"/>
<path d="M529.16 179.459L556.339 196.808C556.555 196.955 556.809 197.036 557.071 197.042H557.422C557.609 197.003 557.787 196.926 557.943 196.816C558.099 196.705 558.231 196.562 558.329 196.398C558.43 196.244 558.498 196.071 558.528 195.89C558.558 195.708 558.55 195.523 558.504 195.345C558.471 195.159 558.399 194.982 558.293 194.826C558.188 194.67 558.05 194.537 557.89 194.438L550.546 189.727C550.282 189.607 550.049 189.427 549.866 189.201C549.683 188.975 549.556 188.709 549.493 188.426C549.431 188.142 549.435 187.847 549.506 187.565C549.577 187.284 549.713 187.022 549.903 186.802L599.639 109.068L613.857 118.166C616.527 119.666 618.826 121.746 620.586 124.252C621.713 126.219 622.194 128.491 621.961 130.747C621.467 134.699 620.684 138.61 619.621 142.449C619.531 142.861 619.566 143.29 619.723 143.681C619.879 144.072 620.149 144.407 620.498 144.643C620.707 144.775 620.956 144.827 621.201 144.79C621.424 144.716 621.63 144.598 621.806 144.442C621.982 144.286 622.125 144.096 622.224 143.883C622.459 143.564 622.637 143.208 622.751 142.83L630.007 125.276L563.331 82.4736L550.371 96.5459C550.075 96.8134 549.827 97.1302 549.639 97.4821C549.339 97.841 549.192 98.3032 549.23 98.7694C549.294 99.0145 549.451 99.2246 549.669 99.3546C550.025 99.5874 550.442 99.7114 550.868 99.7114C551.294 99.7114 551.711 99.5874 552.068 99.3546C555.069 96.781 558.257 94.434 561.605 92.333C563.56 91.194 565.817 90.6833 568.071 90.8702C571.049 91.3707 573.878 92.5302 576.35 94.264L590.569 103.333L540.833 181.068C540.708 181.328 540.526 181.556 540.3 181.736C540.073 181.915 539.809 182.04 539.527 182.102C539.245 182.164 538.953 182.161 538.672 182.094C538.392 182.026 538.13 181.895 537.908 181.711L530.594 177.03C530.435 176.915 530.255 176.833 530.064 176.788C529.873 176.743 529.675 176.736 529.482 176.767C529.11 176.88 528.796 177.132 528.604 177.469C528.504 177.629 528.436 177.807 528.406 177.992C528.376 178.178 528.384 178.369 528.429 178.552C528.475 178.748 528.564 178.931 528.691 179.088C528.818 179.245 528.978 179.372 529.16 179.459Z" fill="#FF8C8C"/>
<path d="M665.407 165.211C665.62 165.415 665.789 165.661 665.904 165.932C666.02 166.204 666.08 166.496 666.08 166.791C665.995 167.369 665.691 167.892 665.231 168.253L597.444 227.615C597.251 227.818 597.016 227.976 596.754 228.077C596.493 228.179 596.213 228.221 595.933 228.201C595.654 228.182 595.382 228.101 595.137 227.964C594.893 227.827 594.682 227.638 594.519 227.41L589.633 221.822C589.521 221.666 589.377 221.535 589.21 221.439C589.044 221.343 588.859 221.284 588.667 221.266C588.297 221.28 587.944 221.431 587.679 221.691C587.414 221.951 587.255 222.3 587.234 222.67C587.2 223.05 587.315 223.428 587.556 223.724L607.128 246.046C607.254 246.187 607.407 246.301 607.578 246.382C607.749 246.462 607.934 246.507 608.123 246.514C608.455 246.528 608.781 246.413 609.03 246.192C609.175 246.068 609.294 245.916 609.379 245.745C609.464 245.574 609.515 245.388 609.527 245.198C609.536 244.816 609.412 244.444 609.176 244.144L604.29 238.557C604.076 238.36 603.905 238.12 603.789 237.853C603.673 237.586 603.615 237.297 603.617 237.006C603.655 236.715 603.753 236.435 603.904 236.183C604.055 235.931 604.256 235.714 604.495 235.543L672.253 176.182C672.446 175.979 672.682 175.821 672.943 175.719C673.204 175.618 673.484 175.576 673.764 175.595C674.043 175.615 674.315 175.696 674.56 175.833C674.804 175.969 675.016 176.159 675.179 176.387L680.064 181.975C680.19 182.116 680.343 182.23 680.514 182.31C680.685 182.391 680.87 182.436 681.059 182.443C681.245 182.462 681.433 182.441 681.61 182.38C681.787 182.319 681.948 182.221 682.083 182.092C682.227 181.973 682.346 181.826 682.431 181.66C682.517 181.494 682.567 181.313 682.58 181.126C682.603 180.743 682.477 180.366 682.229 180.073L662.657 157.721C662.385 157.462 662.023 157.317 661.647 157.317C661.272 157.317 660.91 157.462 660.638 157.721C660.482 157.833 660.351 157.977 660.256 158.144C660.16 158.31 660.101 158.495 660.082 158.687C660.077 158.881 660.111 159.074 660.181 159.254C660.252 159.435 660.357 159.6 660.492 159.74L665.407 165.211Z" fill="#FF8C8C"/>
<path d="M646.156 258.626C640.613 264.713 636.839 272.199 635.244 280.276C633.868 288.217 634.805 296.386 637.943 303.809C641.081 311.233 646.289 317.596 652.944 322.142C659.828 326.623 667.816 329.113 676.027 329.339H678.221C686.767 329.217 695.203 327.387 703.031 323.956C711.595 320.477 719.287 315.153 725.558 308.362C731.17 302.303 734.997 294.81 736.617 286.712C737.999 278.767 737.065 270.592 733.926 263.163C730.788 255.734 725.577 249.365 718.917 244.817C712.023 240.331 704.026 237.83 695.804 237.591C686.516 237.45 677.299 239.24 668.738 242.845C660.177 246.451 652.458 251.795 646.069 258.539L646.156 258.626ZM698.32 247.684H701.246C707.299 247.552 713.303 248.803 718.8 251.341C724.399 254.04 728.824 258.685 731.247 264.409C733.67 270.132 733.925 276.543 731.965 282.441C729.615 289.097 725.583 295.033 720.263 299.673C713.8 305.367 706.421 309.927 698.437 313.16C690.565 316.642 682.154 318.75 673.57 319.392C666.55 319.983 659.496 318.754 653.09 315.822C647.495 313.119 643.074 308.474 640.652 302.752C638.229 297.029 637.971 290.622 639.925 284.723C642.319 278.097 646.344 272.181 651.627 267.52C664.743 256.143 681.135 249.228 698.437 247.772L698.32 247.684Z" fill="#FF8C8C"/>
<path d="M760.197 362.223C760.074 362.079 759.921 361.964 759.75 361.883C759.579 361.802 759.392 361.759 759.203 361.755C759.014 361.737 758.823 361.761 758.645 361.825C758.466 361.889 758.304 361.992 758.169 362.126C758.035 362.26 757.932 362.423 757.868 362.601C757.804 362.78 757.78 362.97 757.798 363.159L757.652 370.59C757.676 371.183 757.466 371.761 757.067 372.2C756.645 372.559 756.098 372.738 755.546 372.697L665.465 370.795C665.172 370.811 664.878 370.767 664.601 370.666C664.325 370.566 664.071 370.411 663.856 370.21C663.486 369.76 663.307 369.182 663.359 368.601L663.534 361.17C663.557 360.975 663.536 360.777 663.472 360.591C663.409 360.406 663.304 360.236 663.167 360.096C663.029 359.956 662.862 359.848 662.678 359.781C662.493 359.714 662.296 359.688 662.101 359.707C661.916 359.707 661.733 359.743 661.563 359.813C661.392 359.883 661.237 359.986 661.106 360.117C660.827 360.375 660.659 360.732 660.638 361.111L660.111 386.945C660.097 387.135 660.127 387.327 660.198 387.504C660.269 387.681 660.379 387.84 660.521 387.969C660.779 388.248 661.136 388.416 661.516 388.437C661.888 388.435 662.245 388.288 662.51 388.027C662.783 387.755 662.941 387.388 662.949 387.003L663.154 377.027C663.117 376.735 663.149 376.438 663.248 376.161C663.348 375.884 663.511 375.634 663.724 375.432C663.938 375.229 664.196 375.08 664.479 374.997C664.761 374.913 665.059 374.897 665.348 374.95L746.359 376.647L659.058 438.407V442.327V442.503L754.141 444.492C754.434 444.456 754.731 444.489 755.009 444.588C755.287 444.688 755.538 444.85 755.743 445.063C755.947 445.276 756.099 445.533 756.187 445.815C756.274 446.097 756.295 446.395 756.248 446.686V454.117C756.236 454.301 756.265 454.484 756.33 454.656C756.396 454.827 756.497 454.983 756.628 455.112C756.759 455.254 756.917 455.368 757.093 455.449C757.269 455.529 757.459 455.574 757.652 455.58C758.015 455.577 758.362 455.429 758.617 455.171C758.892 454.909 759.059 454.554 759.086 454.176L759.612 428.313C759.624 428.123 759.593 427.932 759.523 427.755C759.452 427.578 759.343 427.419 759.203 427.289C758.942 427.018 758.584 426.86 758.208 426.85C758.019 426.832 757.828 426.856 757.65 426.92C757.471 426.985 757.309 427.087 757.175 427.222C757.041 427.356 756.938 427.518 756.874 427.697C756.809 427.875 756.785 428.066 756.804 428.255L756.599 438.231C756.625 438.819 756.426 439.394 756.043 439.84C755.818 440.03 755.557 440.172 755.275 440.258C754.993 440.343 754.697 440.37 754.405 440.338L677.051 438.846L760.168 381.62L760.548 363.364C760.595 363.16 760.587 362.947 760.525 362.747C760.463 362.547 760.35 362.366 760.197 362.223Z" fill="#FF8C8C"/>
<path d="M727.255 500.079C720.855 493.342 713.027 488.124 704.347 484.807C696.818 481.658 688.752 479.989 680.591 479.892C679.479 479.892 678.338 479.892 677.256 479.892C669.03 480.299 661.07 482.939 654.231 487.528C647.663 492.199 642.575 498.658 639.572 506.137C636.569 513.616 635.778 521.8 637.291 529.716C639.04 537.745 642.956 545.142 648.614 551.102C655.14 557.68 662.941 562.856 671.539 566.312C680.137 569.768 689.349 571.432 698.613 571.201C706.831 570.827 714.788 568.195 721.608 563.595C728.176 558.924 733.264 552.465 736.267 544.986C739.27 537.507 740.062 529.323 738.548 521.407C736.785 513.406 732.881 506.034 727.255 500.079ZM733.603 543.964C731.326 549.735 726.99 554.457 721.433 557.217C715.782 559.978 709.552 561.343 703.265 561.196C702.504 561.196 701.743 561.196 700.953 561.196C683.681 559.972 667.227 553.362 653.909 542.296C648.486 537.77 644.332 531.913 641.855 525.298C639.787 519.438 639.923 513.026 642.238 507.26C644.554 501.493 648.89 496.767 654.436 493.965C660.818 490.939 667.866 489.59 674.915 490.044C692.217 491.23 708.693 497.89 721.959 509.061C727.355 513.612 731.503 519.461 734.013 526.059C736.155 531.933 736.009 538.397 733.603 544.168V543.964Z" fill="#FF8C8C"/>
<path d="M686.764 627.842L681.673 633.079C681.495 633.293 681.271 633.466 681.019 633.585C680.766 633.704 680.49 633.765 680.211 633.765C679.931 633.765 679.655 633.704 679.403 633.585C679.15 633.466 678.926 633.293 678.748 633.079L614.969 569.387C614.754 569.209 614.581 568.985 614.463 568.733C614.344 568.48 614.282 568.204 614.282 567.925C614.282 567.645 614.344 567.37 614.463 567.117C614.581 566.864 614.754 566.64 614.969 566.462L620.206 561.225C620.357 561.1 620.48 560.943 620.565 560.767C620.651 560.59 620.698 560.397 620.703 560.201C620.676 559.808 620.498 559.441 620.206 559.177C620.072 559.043 619.912 558.938 619.736 558.868C619.56 558.797 619.371 558.763 619.182 558.767C618.997 558.767 618.814 558.803 618.644 558.873C618.473 558.943 618.318 559.047 618.187 559.177L599.756 577.404C599.622 577.538 599.516 577.698 599.446 577.874C599.376 578.05 599.342 578.238 599.346 578.428C599.346 578.612 599.381 578.795 599.452 578.966C599.522 579.137 599.625 579.292 599.756 579.422C600.032 579.684 600.399 579.829 600.78 579.829C601.16 579.829 601.527 579.684 601.804 579.422L608.854 572.372C609.033 572.157 609.256 571.984 609.509 571.865C609.762 571.747 610.038 571.685 610.317 571.685C610.596 571.685 610.872 571.747 611.125 571.865C611.378 571.984 611.601 572.157 611.78 572.372L669.122 629.626L563.331 613.857L560.581 616.783L627.871 684.072C628.086 684.251 628.259 684.475 628.377 684.727C628.496 684.98 628.557 685.256 628.557 685.535C628.557 685.815 628.496 686.09 628.377 686.343C628.259 686.596 628.086 686.82 627.871 686.998L622.634 692.235C622.369 692.51 622.222 692.877 622.224 693.259C622.22 693.448 622.255 693.636 622.325 693.812C622.396 693.988 622.502 694.148 622.635 694.282C622.769 694.415 622.929 694.521 623.105 694.592C623.28 694.662 623.469 694.697 623.658 694.693C623.843 694.693 624.025 694.657 624.196 694.587C624.367 694.516 624.522 694.413 624.653 694.283L642.938 675.968C643.068 675.838 643.172 675.683 643.242 675.512C643.312 675.341 643.348 675.158 643.348 674.974C643.352 674.784 643.318 674.596 643.248 674.42C643.177 674.244 643.072 674.084 642.938 673.95C642.818 673.792 642.663 673.664 642.485 673.576C642.308 673.488 642.112 673.443 641.914 673.443C641.716 673.443 641.52 673.488 641.343 673.576C641.165 673.664 641.01 673.792 640.89 673.95L633.839 681.001C633.661 681.215 633.437 681.388 633.184 681.507C632.932 681.626 632.656 681.687 632.376 681.687C632.097 681.687 631.821 681.626 631.568 681.507C631.316 681.388 631.092 681.215 630.914 681.001L576.467 626.613L675.822 642.792L688.724 629.86C688.86 629.734 688.967 629.58 689.038 629.408C689.109 629.236 689.141 629.051 689.134 628.866C689.144 628.676 689.112 628.486 689.041 628.309C688.971 628.132 688.862 627.973 688.724 627.842C688.606 627.695 688.457 627.577 688.287 627.496C688.118 627.415 687.932 627.372 687.744 627.372C687.556 627.372 687.37 627.415 687.201 627.496C687.031 627.577 686.882 627.695 686.764 627.842Z" fill="#FF8C8C"/>
<path d="M570.324 724.563C570.143 724.485 569.949 724.445 569.753 724.445C569.557 724.445 569.363 724.485 569.183 724.563L562.307 727.343C562.04 727.462 561.751 727.524 561.459 727.524C561.166 727.524 560.877 727.462 560.61 727.343C560.352 727.213 560.123 727.031 559.937 726.81C559.751 726.589 559.612 726.332 559.528 726.055L525.532 642.616C525.357 642.357 525.249 642.058 525.218 641.747C525.186 641.436 525.231 641.122 525.35 640.833C525.469 640.544 525.657 640.288 525.898 640.089C526.139 639.889 526.425 639.753 526.732 639.691L533.607 636.765C533.796 636.714 533.971 636.621 534.119 636.492C534.267 636.363 534.383 636.203 534.46 636.022C534.536 635.841 534.57 635.646 534.559 635.45C534.548 635.254 534.493 635.064 534.397 634.893C534.326 634.717 534.219 634.559 534.083 634.428C533.947 634.297 533.784 634.196 533.607 634.132C533.414 634.091 533.215 634.091 533.022 634.132C532.857 634.102 532.689 634.102 532.524 634.132L501.454 647.151C501.279 647.222 501.121 647.329 500.99 647.465C500.859 647.601 500.758 647.763 500.693 647.941C500.615 648.111 500.574 648.295 500.574 648.482C500.574 648.669 500.615 648.854 500.693 649.023C500.764 649.202 500.871 649.364 501.006 649.5C501.142 649.636 501.305 649.743 501.483 649.813C501.653 649.892 501.838 649.933 502.025 649.933C502.211 649.933 502.396 649.892 502.566 649.813L513.01 645.571C513.556 645.359 514.161 645.359 514.707 645.571C515.224 645.854 515.612 646.325 515.79 646.888L534.982 694.02L516.989 701.363C514.693 702.396 512.192 702.896 509.675 702.826C507.423 702.524 505.351 701.436 503.824 699.754C501.379 697.014 499.402 693.891 497.973 690.509C497.759 690.206 497.479 689.956 497.153 689.778C497.007 689.707 496.847 689.671 496.685 689.671C496.523 689.671 496.363 689.707 496.217 689.778C496.071 689.848 495.943 689.95 495.841 690.077C495.74 690.203 495.669 690.351 495.632 690.509C495.501 690.848 495.501 691.223 495.632 691.562L509.061 724.768C509.118 724.94 509.21 725.099 509.331 725.235C509.452 725.371 509.599 725.481 509.763 725.558C509.907 725.635 510.068 725.675 510.231 725.675C510.394 725.675 510.555 725.635 510.699 725.558C510.972 725.421 511.19 725.194 511.313 724.914C511.403 724.569 511.403 724.207 511.313 723.861C510.276 720.556 509.734 717.115 509.704 713.651C509.744 711.517 510.495 709.457 511.84 707.799C513.547 706.057 515.628 704.727 517.925 703.908L535.889 696.565L550.517 732.199L523.045 743.375C519.932 744.746 516.586 745.511 513.186 745.628H512.981C509.862 745.565 506.822 744.633 504.204 742.936C500.613 740.584 497.322 737.804 494.403 734.657C494.194 734.382 493.896 734.187 493.56 734.107C493.224 734.027 492.871 734.066 492.56 734.218C492.374 734.27 492.206 734.371 492.072 734.509C491.939 734.648 491.844 734.82 491.799 735.008C491.723 735.435 491.785 735.876 491.975 736.266L492.121 736.646L503.092 754.434L570.06 727.167C570.416 727.016 570.699 726.733 570.85 726.377C570.922 726.206 570.959 726.022 570.959 725.836C570.959 725.65 570.922 725.466 570.85 725.295C570.764 724.998 570.578 724.739 570.324 724.563Z" fill="#FF8C8C"/>
<path d="M457.716 759.349L450.314 760.081C450.027 760.14 449.731 760.139 449.444 760.079C449.157 760.018 448.885 759.899 448.646 759.729C448.437 759.528 448.27 759.288 448.155 759.022C448.039 758.755 447.978 758.469 447.973 758.179L438.845 668.537C438.786 668.25 438.787 667.954 438.848 667.667C438.908 667.38 439.027 667.109 439.197 666.87C439.398 666.661 439.638 666.494 439.904 666.378C440.171 666.263 440.457 666.201 440.747 666.197L448.12 665.436C448.317 665.441 448.512 665.401 448.691 665.319C448.87 665.237 449.027 665.115 449.152 664.963C449.276 664.81 449.364 664.631 449.408 664.439C449.452 664.247 449.452 664.048 449.407 663.856C449.392 663.667 449.338 663.484 449.247 663.317C449.156 663.151 449.031 663.006 448.88 662.891C448.633 662.687 448.323 662.573 448.003 662.569H447.856L418.308 665.495C417.926 665.548 417.58 665.748 417.342 666.051C417.219 666.189 417.128 666.352 417.072 666.528C417.017 666.705 416.999 666.891 417.02 667.075C417.035 667.263 417.09 667.447 417.18 667.614C417.271 667.78 417.396 667.925 417.547 668.04C417.689 668.167 417.856 668.261 418.038 668.316C418.22 668.372 418.412 668.387 418.6 668.362L425.973 667.601C426.262 667.546 426.559 667.552 426.846 667.617C427.133 667.683 427.404 667.807 427.64 667.982C427.853 668.181 428.025 668.421 428.146 668.687C428.266 668.953 428.333 669.24 428.342 669.532L437.5 759.174C437.568 759.46 437.569 759.758 437.502 760.044C437.436 760.33 437.304 760.598 437.117 760.824C436.93 761.051 436.692 761.232 436.424 761.351C436.155 761.471 435.863 761.527 435.569 761.514L428.196 762.275C428.007 762.29 427.824 762.344 427.657 762.435C427.491 762.526 427.345 762.651 427.231 762.801C427.109 762.946 427.018 763.114 426.962 763.295C426.907 763.476 426.889 763.666 426.909 763.855C426.924 764.044 426.978 764.227 427.069 764.394C427.16 764.56 427.285 764.705 427.436 764.82C427.735 765.053 428.11 765.167 428.489 765.142L458.038 762.216C458.223 762.205 458.404 762.152 458.566 762.061C458.729 761.969 458.868 761.843 458.974 761.69C459.107 761.557 459.207 761.396 459.268 761.218C459.329 761.041 459.349 760.852 459.325 760.666C459.321 760.468 459.277 760.273 459.197 760.092C459.116 759.911 459.001 759.748 458.857 759.613C458.696 759.491 458.511 759.404 458.314 759.359C458.118 759.314 457.914 759.31 457.716 759.349Z" fill="#FF8C8C"/>
<path d="M373.575 668.391C367.799 662.738 360.462 658.947 352.51 657.508C349.668 656.941 346.777 656.656 343.879 656.659C338.453 656.6 333.081 657.739 328.145 659.994C323.209 662.25 318.832 665.566 315.325 669.708C315.113 670.001 314.999 670.355 314.999 670.717C314.999 671.079 315.113 671.432 315.325 671.726C315.472 671.887 315.654 672.01 315.858 672.086C316.061 672.163 316.28 672.19 316.495 672.165C316.991 672.074 317.448 671.84 317.812 671.492C322.035 666.718 327.46 663.162 333.523 661.194C339.076 659.399 344.991 659.027 350.725 660.111C356.962 661.301 362.567 664.684 366.524 669.649C370.951 675.33 373.825 682.065 374.862 689.192C376.225 697.701 376.017 706.387 374.247 714.821C372.779 723.269 369.806 731.384 365.471 738.782C361.945 744.974 356.914 750.177 350.842 753.907C345.653 757.051 339.484 758.166 333.523 757.038C329.787 756.498 326.206 755.177 323.016 753.161C319.825 751.144 317.094 748.478 315.003 745.335C310.658 737.549 308.485 728.738 308.713 719.824C308.709 719.377 308.577 718.94 308.333 718.566C308.113 718.216 307.767 717.965 307.367 717.863C307.179 717.838 306.987 717.853 306.805 717.909C306.624 717.965 306.456 718.059 306.314 718.185C306.006 718.531 305.803 718.957 305.729 719.414L301.37 750.631C301.267 750.884 301.267 751.167 301.37 751.421C301.493 751.632 301.691 751.789 301.926 751.859C302.335 751.859 302.686 751.859 302.979 751.274L306.431 744.604C309.878 748.494 313.904 751.83 318.368 754.493C323.247 757.257 328.559 759.176 334.078 760.168C341.763 761.734 349.744 760.886 356.928 757.74C364.386 754.42 370.799 749.13 375.476 742.439C380.797 734.868 384.383 726.217 385.979 717.103C387.92 708.013 387.78 698.601 385.57 689.573C383.579 681.55 379.431 674.225 373.575 668.391Z" fill="#FF8C8C"/>
<path d="M284.869 634.541L257.69 617.309C257.474 617.162 257.22 617.081 256.959 617.075H256.608C256.236 617.152 255.91 617.373 255.701 617.69C255.599 617.848 255.53 618.026 255.5 618.213C255.47 618.399 255.479 618.589 255.525 618.772C255.607 619.141 255.827 619.466 256.14 619.679L263.483 624.36C263.747 624.481 263.98 624.661 264.163 624.887C264.346 625.113 264.474 625.378 264.536 625.662C264.598 625.946 264.594 626.24 264.523 626.522C264.452 626.804 264.316 627.066 264.126 627.286L214.478 705.078L200.26 696.009C197.59 694.497 195.291 692.408 193.531 689.894C192.404 687.927 191.923 685.655 192.156 683.4C192.65 679.447 193.433 675.536 194.496 671.697C194.579 671.283 194.537 670.853 194.376 670.462C194.214 670.072 193.941 669.738 193.589 669.503C193.382 669.368 193.131 669.316 192.887 669.356C192.445 669.521 192.08 669.845 191.863 670.263C191.651 670.605 191.474 670.968 191.337 671.346L184.081 688.9L250.698 731.409L263.629 717.366C263.93 717.107 264.187 716.801 264.39 716.459C264.541 716.278 264.653 716.068 264.719 715.841C264.784 715.614 264.802 715.377 264.77 715.143C264.75 715.021 264.703 714.904 264.632 714.803C264.562 714.702 264.469 714.618 264.361 714.558C264.004 714.325 263.587 714.201 263.161 714.201C262.735 714.201 262.318 714.325 261.962 714.558C258.961 717.131 255.773 719.478 252.424 721.579C250.465 722.733 248.194 723.245 245.929 723.042C242.937 722.561 240.089 721.422 237.591 719.707L223.372 710.637L273.108 632.903C273.229 632.638 273.409 632.406 273.635 632.223C273.861 632.04 274.126 631.912 274.41 631.85C274.694 631.787 274.988 631.792 275.27 631.863C275.552 631.934 275.814 632.07 276.034 632.259L283.377 636.94C283.535 637.057 283.715 637.14 283.906 637.185C284.097 637.23 284.295 637.237 284.489 637.204C284.862 637.093 285.177 636.841 285.367 636.502C285.469 636.343 285.537 636.165 285.567 635.979C285.597 635.792 285.589 635.602 285.542 635.419C285.494 635.236 285.409 635.063 285.294 634.913C285.178 634.762 285.034 634.636 284.869 634.541Z" fill="#FF8C8C"/>
<path d="M148.593 648.789C148.176 648.379 147.935 647.823 147.92 647.239C148.024 646.66 148.336 646.139 148.798 645.776L216.497 586.415C216.686 586.205 216.919 586.041 217.179 585.934C217.44 585.827 217.721 585.78 218.002 585.797C218.284 585.814 218.557 585.894 218.803 586.031C219.049 586.169 219.261 586.36 219.423 586.59L224.309 592.178C224.553 592.494 224.909 592.704 225.303 592.763C225.678 592.745 226.032 592.588 226.298 592.325C226.439 592.199 226.553 592.046 226.634 591.875C226.714 591.704 226.759 591.519 226.766 591.33C226.788 591.144 226.767 590.955 226.706 590.778C226.646 590.601 226.546 590.44 226.415 590.306L206.872 567.954C206.746 567.813 206.593 567.699 206.422 567.619C206.251 567.538 206.066 567.493 205.877 567.486C205.519 567.485 205.175 567.621 204.914 567.866C204.653 568.11 204.495 568.445 204.473 568.802C204.455 568.993 204.477 569.185 204.537 569.366C204.598 569.547 204.695 569.714 204.824 569.856L209.71 575.444C209.919 575.645 210.086 575.885 210.202 576.151C210.317 576.418 210.379 576.704 210.383 576.994C210.345 577.285 210.247 577.565 210.096 577.817C209.945 578.069 209.744 578.287 209.505 578.457L141.835 637.789C141.645 637.997 141.41 638.159 141.148 638.264C140.886 638.368 140.604 638.413 140.323 638.393C140.041 638.373 139.768 638.29 139.524 638.15C139.279 638.01 139.069 637.817 138.909 637.584L133.936 631.938C133.81 631.797 133.657 631.683 133.486 631.602C133.315 631.522 133.13 631.477 132.941 631.47C132.751 631.452 132.559 631.474 132.377 631.534C132.196 631.594 132.029 631.692 131.888 631.821C131.608 632.079 131.441 632.435 131.42 632.815C131.404 633.001 131.427 633.188 131.488 633.364C131.548 633.54 131.645 633.702 131.771 633.839L151.314 656.191C151.44 656.332 151.593 656.446 151.764 656.527C151.935 656.607 152.12 656.652 152.309 656.659C152.499 656.677 152.691 656.655 152.872 656.595C153.054 656.534 153.221 656.437 153.362 656.308C153.667 656.072 153.867 655.725 153.918 655.343C153.923 655.146 153.886 654.951 153.81 654.77C153.735 654.588 153.622 654.425 153.479 654.289L148.593 648.789Z" fill="#FF8C8C"/>
<path d="M167.844 555.374C173.395 549.299 177.178 541.823 178.786 533.753C180.183 525.822 179.271 517.656 176.159 510.229C173.047 502.801 167.866 496.424 161.232 491.858C154.34 487.374 146.339 484.893 138.119 484.69C137.417 484.69 136.686 484.69 135.925 484.69C127.389 484.812 118.963 486.642 111.145 490.073C102.532 493.539 94.7978 498.875 88.5007 505.696C82.9376 511.743 79.1425 519.202 77.5295 527.258C76.1659 535.203 77.1085 543.372 80.2456 550.797C83.3827 558.223 88.5828 564.593 95.2296 569.153C102.1 573.594 110.049 576.082 118.225 576.35C127.509 576.626 136.736 574.816 145.229 571.055C153.846 567.587 161.575 562.228 167.844 555.374ZM115.709 566.315H112.783C106.73 566.445 100.727 565.194 95.2296 562.658C89.6276 559.982 85.1889 555.362 82.74 549.657C80.2912 543.952 79.999 537.551 81.918 531.647C84.2731 525.001 88.304 519.075 93.6205 514.444C100.059 508.725 107.432 504.153 115.417 500.927C123.34 497.445 131.799 495.338 140.431 494.696C147.451 494.105 154.504 495.334 160.91 498.265C166.516 500.931 170.936 505.58 173.315 511.314C175.816 517.025 176.077 523.469 174.046 529.365C171.668 536.007 167.641 541.936 162.344 546.597C155.917 552.325 148.555 556.907 140.577 560.142C132.706 563.619 124.292 565.707 115.709 566.315Z" fill="#FF8C8C"/>
</g>
<defs>
<clipPath id="clip0_20_19">
<rect width="814" height="814" fill="white"/>
</clipPath>
</defs>
</svg>
